<svg xmlns="http://www.w3.org/2000/svg" width="155" height="52.79" data-name="Travel Logo" viewBox="0 0 155 52.79">
  <defs>
    <clipPath id="a">
      <path fill="none" d="M0 0h155v52.79H0z" data-name="Rectangle 183"/>
    </clipPath>
  </defs>
  <g fill="#66665D" clip-path="url(#a)" data-name="Group 2066">
    <path d="M153.085 17.907a6.708 6.708 0 0 0-3.441-1.436l-4.757-.928c-2.423-.478-2.423-.478-2.872-.778a1.479 1.479 0 0 1-.508-1.166c0-1.316 1.436-2.005 4.159-2.005 2.184 0 3.381.33 5.984 1.676l2-3.081a13.8 13.8 0 0 0-7.958-2.364c-4.966 0-7.988 2.214-7.988 5.8 0 2.663 1.855 4.668 4.817 5.266l4.966.958c2.364.478 2.393.478 2.782.689a1.682 1.682 0 0 1 .987 1.555 2.081 2.081 0 0 1-.868 1.676 9.847 9.847 0 0 1-4.667.987 11.6 11.6 0 0 1-6.912-2.244l-2.149 3.115a15.1 15.1 0 0 0 9.395 2.932c5.415 0 8.946-2.513 8.946-6.4a5.776 5.776 0 0 0-1.915-4.249m-25.4.42c0 2-.03 2.214-.509 3.261a5.292 5.292 0 0 1-9.723 0 6.079 6.079 0 0 1-.509-3.261V8.214h-3.8v9.993c0 2.633.179 3.68.957 5.235a9.149 9.149 0 0 0 16.425 0 10.3 10.3 0 0 0 .957-5.235V8.214h-3.8Zm-26.417-1.377h-8.138v-4.939h7.72a2.819 2.819 0 0 1 1.675.329 2.624 2.624 0 0 1 1.257 2.244 2.462 2.462 0 0 1-2.513 2.364m4.158 2.244a6.352 6.352 0 0 0 2.124-4.727 6.355 6.355 0 0 0-7.031-6.253h-11.19V28.17h3.8v-7.42h6.163l4.069 7.42h4.337l-4.338-7.9a5.092 5.092 0 0 0 2.065-1.077M48.136 8.214h-3.8V28.17h15.947v-3.8H48.136ZM27.1 19.494h6.851v-3.8H27.1v-3.68h11.823v-3.8H23.305V28.17h15.947v-3.8H27.1ZM12.087 16.95H3.8v-4.936h7.869a3.2 3.2 0 0 1 1.675.329 2.642 2.642 0 0 1 1.256 2.214 2.507 2.507 0 0 1-2.514 2.393m2.633-8.168a6.027 6.027 0 0 0-3.351-.568H0V28.17h3.8v-7.42h6.522c3.021 0 3.56-.09 4.667-.689a6.285 6.285 0 0 0-.269-11.279" data-name="Path 1018"/>
    <path d="m77.247 0 .472 2.793.472 2.793 4.365-3.611-2.654-.988Z" data-name="Path 1019"/>
    <path d="m66.631 32.603-2.183 1.806 2.655.987 2.655.988-.944-5.586Z" data-name="Path 1020"/>
    <path d="m79.06 14.654 3.3-1.9a10.382 10.382 0 0 0-1.944-2.316l-2.451 2.922a6.551 6.551 0 0 1 1.1 1.3" data-name="Path 1021"/>
    <path d="m82.655 13.244-3.32 1.917a6.455 6.455 0 0 1 .6 1.589l3.755-.662a10.285 10.285 0 0 0-1.036-2.844" data-name="Path 1022"/>
    <path d="M73.835 11.644a6.475 6.475 0 0 1 1.67.3l1.309-3.6a10.3 10.3 0 0 0-2.979-.52Z" data-name="Path 1023"/>
    <path d="M68.032 14.654a6.551 6.551 0 0 1 1.1-1.3l-2.451-2.922a10.4 10.4 0 0 0-1.943 2.316Z" data-name="Path 1024"/>
    <path d="M76.056 12.119a6.517 6.517 0 0 1 1.46.87l2.457-2.928a10.331 10.331 0 0 0-2.618-1.512Z" data-name="Path 1025"/>
    <path d="M80.102 18.171a6.459 6.459 0 0 1-.086.847l3.763.664a9.4 9.4 0 0 0 0-3.021l-3.763.663a6.428 6.428 0 0 1 .086.848" data-name="Path 1026"/>
    <path d="M79.06 21.687a6.552 6.552 0 0 1-1.1 1.3l2.452 2.922a10.373 10.373 0 0 0 1.943-2.315Z" data-name="Path 1027"/>
    <path d="M66.991 18.171a6.423 6.423 0 0 1 .086-.848l-3.762-.663a9.4 9.4 0 0 0 0 3.021l3.762-.664a6.464 6.464 0 0 1-.086-.847" data-name="Path 1028"/>
    <path d="m68.032 21.687-3.3 1.9a10.379 10.379 0 0 0 1.943 2.315l2.452-2.922a6.542 6.542 0 0 1-1.1-1.3" data-name="Path 1029"/>
    <path d="M75.504 24.394a6.48 6.48 0 0 1-1.669.3v3.815a10.329 10.329 0 0 0 2.979-.52Z" data-name="Path 1030"/>
    <path d="M73.258 24.696a6.486 6.486 0 0 1-1.669-.3l-1.309 3.6a10.337 10.337 0 0 0 2.979.52Z" data-name="Path 1031"/>
    <path d="M71.587 11.947a6.466 6.466 0 0 1 1.67-.3V7.83a10.3 10.3 0 0 0-2.979.52Z" data-name="Path 1032"/>
    <path d="M79.937 19.591a6.474 6.474 0 0 1-.6 1.589l3.32 1.917a10.277 10.277 0 0 0 1.035-2.844Z" data-name="Path 1033"/>
    <path d="M77.517 23.351a6.5 6.5 0 0 1-1.461.871l1.3 3.57a10.322 10.322 0 0 0 2.618-1.512Z" data-name="Path 1034"/>
    <path d="M69.577 12.989a6.529 6.529 0 0 1 1.46-.87l-1.3-3.57a10.335 10.335 0 0 0-2.617 1.512Z" data-name="Path 1035"/>
    <path d="M67.156 16.749a6.478 6.478 0 0 1 .6-1.589l-3.32-1.917a10.275 10.275 0 0 0-1.035 2.844Z" data-name="Path 1036"/>
    <path d="M71.037 24.223a6.5 6.5 0 0 1-1.461-.871l-2.452 2.925a10.3 10.3 0 0 0 2.618 1.513Z" data-name="Path 1037"/>
    <path d="M67.757 21.18a6.453 6.453 0 0 1-.6-1.589l-3.754.662a10.283 10.283 0 0 0 1.035 2.845Z" data-name="Path 1038"/>
    <path d="M40.693 46.367H38.27v-1.239h6.183v1.239H42.03v6.373h-1.337Z" data-name="Path 1039"/>
    <path d="M52.797 45.129h3.39a3.065 3.065 0 0 1 2.2.761 2.318 2.318 0 0 1 .63 1.641v.022a2.284 2.284 0 0 1-1.8 2.3l2.054 2.88h-1.587l-1.869-2.652h-1.674v2.652h-1.337ZM56.09 48.9c.956 0 1.565-.489 1.565-1.271v-.022c0-.826-.576-1.261-1.576-1.261h-1.945V48.9Z" data-name="Path 1040"/>
    <path d="M70.304 45.074h1.239l3.347 7.661h-1.413l-.772-1.836h-3.601l-.782 1.836h-1.369Zm1.912 4.64-1.315-3.043-1.3 3.043Z" data-name="Path 1041"/>
    <path d="M81.406 45.128h1.478l2.293 5.846 2.282-5.846h1.445l-3.151 7.661h-1.198Z" data-name="Path 1042"/>
    <path d="M97.16 45.128h5.64v1.2h-4.3v1.978h3.814v1.206H98.5v2.028h4.357v1.2h-5.694Z" data-name="Path 1043"/>
    <path d="M111.395 45.128h1.337v6.39h4v1.222h-5.335Z" data-name="Path 1044"/>
  </g>
</svg>
