<?xml version="1.0" encoding="UTF-8"?>
<svg id="Calque_1" data-name="Calque 1" xmlns="http://www.w3.org/2000/svg" viewBox="0 0 1983.44 332.43">
  <path d="m457.52,203.62l-56.13-80.82v80.82h-10.93v-89.99h17.78l53.75,77.16,53.96-77.16h17.53v89.99h-10.93v-80.82l-56.26,80.82h-8.77Z" style="fill: #7b787a;"/>
  <path d="m571.53,203.62h-10.93v-89.99h10.93v89.99Z" style="fill: #7b787a;"/>
  <path d="m673.67,203.89l-23.21.81h-9.98l-19.97-.81c-16.01-1.62-24.02-10.23-24.02-25.81l-.54-17.16c0-6.85.07-11.94.2-15.27.14-3.33.79-7.97,1.96-13.92,1.17-5.94,4-10.45,8.5-13.51,4.5-3.06,10.75-4.6,18.75-4.6,3.6-.42,6.99-.68,10.19-.79,3.19-.11,6.95-.16,11.27-.16h16.19c5.22,0,9.44.11,12.68.34,3.24.23,7.49.89,12.75,1.98,5.26,1.09,8.93,4.01,11,8.75,2.07,4.74,3.1,11.08,3.1,19.01h-10.79v-.83c0-4.16-.25-7.58-.74-10.25-.5-2.68-1.67-4.62-3.51-5.82-1.84-1.2-5.24-2.12-10.19-2.77-4.95-.65-11.78-.97-20.51-.97-3.24,0-8.14.16-14.71.47-6.57.32-11.51.47-14.84.47-7.74.63-12.68,2.01-14.84,4.14-2.16,2.12-3.51,5.81-4.05,11.06-.54,5.25-.86,10.02-.94,14.31-.09,4.3-.13,8.39-.13,12.28,0,11.49,1.15,19.41,3.44,23.75,2.29,4.34,8.39,6.51,18.28,6.51h41.15c8.27,0,14.03-.98,17.27-2.93,3.24-1.95,4.86-6.66,4.86-14.12v-3.6h11.33c0,11.42-1.8,19.17-5.4,23.27-3.6,4.1-11.78,6.15-24.56,6.15Z" style="fill: #7b787a;"/>
  <path d="m738.16,203.62h-10.93v-89.99h10.93v38.99h83.92v-38.99h10.79v89.99h-10.79v-41.96h-83.92v41.96Z" style="fill: #7b787a;"/>
  <path d="m857.7,203.62h-12.79l53.18-89.99h14.45l53.62,89.99h-12.53l-11.91-20.24h-72.27l-11.75,20.24Zm16.99-29.28h61.71l-31.07-52.75-30.64,52.75Z" style="fill: #7b787a;"/>
  <path d="m1064.4,152.62v9.04h-75.42v32.92h79.2v9.04h-90.13v-89.99h89.18v9.17h-78.26v29.82h75.42Zm-50.06-47.9h-19.02v-8.9h19.02v8.9Zm32.92,0h-19.02v-8.9h19.02v8.9Z" style="fill: #7b787a;"/>
  <path d="m1173.82,203.62h-82.03v-89.99h10.93v80.95h71.1v9.04Z" style="fill: #7b787a;"/>
  <path d="m1321.82,203.62h-104.02v-9.04l85.41-71.78h-81.63v-9.17h98.76v9.17l-85.54,71.78h87.02v9.04Z" style="fill: #7b787a;"/>
  <path d="m1350.97,203.62h-10.93v-89.99h10.93v89.99Z" style="fill: #7b787a;"/>
  <path d="m1378.09,203.62v-89.99h18.14l83.05,81.36v-81.36h10.93v89.99h-17.92l-83.27-81.76v81.76h-10.93Z" style="fill: #7b787a;"/>
  <path d="m1569.67,159.23h58.56l.14,8.01c0,13.93-2.05,23.66-6.14,29.18-4.09,5.52-13.15,8.28-27.19,8.28h-37.78c-17.09,0-28.38-2.54-33.87-7.62-5.49-5.08-8.23-16.08-8.23-32.99v-4.99c0-17.54,2.07-29.59,6.21-36.16,4.14-6.56,14.17-9.85,30.09-9.85l22.67-.27,10.93-.13,17.94.67c8.64,0,14.77,2.16,18.42,6.48,3.64,4.32,5.46,11.02,5.46,20.1h-10.79c0-7.91-1.67-12.79-4.99-14.64-3.33-1.84-9.54-2.77-18.62-2.77l-18.35-.14-10.66-.13-17.68.67c-6.84.63-11.67,1.94-14.5,3.91-2.83,1.98-4.25,6.93-4.25,14.84l-.54,23.21c0,9.71.7,17.11,2.09,22.19,1.39,5.08,8.66,7.62,21.79,7.62l22.94.27,9.71.13h2.02c4.14,0,9.58-.31,16.33-.94,6.75-.63,11.02-2.79,12.82-6.48,1.8-3.69,2.7-10.16,2.7-19.43h-47.22v-9.04Z" style="fill: #7b787a;"/>
  <path d="m1755.46,140.34c0,8.09-1.19,13.65-3.58,16.66-2.38,3.01-7.58,5.11-15.58,6.28,6.03.81,10.46,2.27,13.29,4.38,2.83,2.11,4.25,5.96,4.25,11.53v24.42h-10.79v-19.97c0-6.65-1.42-11.06-4.25-13.22-2.83-2.16-7.76-3.24-14.77-3.24h-61.39v36.43h-10.93v-89.99h73.26c10.88,0,18.69,1.82,23.41,5.46,4.72,3.64,7.08,10.73,7.08,21.25Zm-11.33-.67c0-7.02-1.67-11.58-4.99-13.69-3.33-2.11-8.82-3.17-16.46-3.17h-60.04v35.35h60.31c7.91,0,13.42-1.24,16.53-3.71,3.1-2.47,4.65-7.4,4.65-14.77Z" style="fill: #7b787a;"/>
  <path d="m1776.64,203.62h-12.79l53.19-89.99h14.45l53.62,89.99h-12.53l-11.91-20.24h-72.27l-11.75,20.24Zm16.99-29.28h61.71l-31.07-52.75-30.64,52.75Z" style="fill: #7b787a;"/>
  <path d="m1979.16,152.89v9.04h-71.24v41.69h-10.93v-89.99h85.94v9.17h-75.02v30.09h71.24Z" style="fill: #7b787a;"/>
  <rect x=".15" y=".68" width="331.2" height="331.2" style="fill: #ce181c;"/>
  <path d="m53.12,219.19c14.01.87,42.13,2.25,65.16,3.33l.97,1.66h-1.81s-86.11-.03-86.11-.03L158.54,61.63l41.66,59.3s-19.57-19.81-41.91-19.81c-25.27,0-55.35,36.06-70.87,55.08-12.74,15.62-29.16,37.95-39,54.82-1.5,2.59.92,7.94,4.7,8.17" style="fill: #fff;"/>
  <path d="m113.49,258.99c32.46,2.01,125.74,6.21,125.74,6.21l-152.87-.04L244.73,62.86l51.86,73.82s-24.36-24.66-52.18-24.66c-31.46,0-68.9,44.88-88.22,68.57-15.85,19.45-36.3,47.24-48.54,68.24-1.9,3.23,1.13,9.88,5.84,10.17" style="fill: #fff;"/>
  <g>
    <path d="m429.05,241.12c0,3-.44,5.06-1.33,6.17-.88,1.12-2.81,1.89-5.77,2.33,2.23.3,3.88.84,4.92,1.62,1.05.78,1.58,2.21,1.58,4.28v9.05h-4v-7.4c0-2.47-.52-4.1-1.58-4.9-1.05-.8-2.88-1.2-5.47-1.2h-22.75v13.5h-4.05v-33.35h27.15c4.03,0,6.93.67,8.68,2.02,1.75,1.35,2.62,3.98,2.62,7.88Zm-4.2-.25c0-2.6-.62-4.29-1.85-5.08-1.23-.78-3.27-1.17-6.1-1.17h-22.25v13.1h22.35c2.93,0,4.98-.46,6.12-1.38,1.15-.92,1.73-2.74,1.73-5.48Z" style="fill: #7c7a79;"/>
    <path d="m469.05,245.67v3.35h-27.95v12.2h29.35v3.35h-33.4v-33.35h33.05v3.4h-29v11.05h27.95Z" style="fill: #7c7a79;"/>
    <path d="m477.55,264.57h-4.74l19.71-33.35h5.35l19.87,33.35h-4.64l-4.41-7.5h-26.78l-4.35,7.5Zm6.3-10.85h22.87l-11.51-19.55-11.35,19.55Z" style="fill: #7c7a79;"/>
    <path d="m551.8,264.57h-30.4v-33.35h4.05v30h26.35v3.35Z" style="fill: #7c7a79;"/>
    <path d="m601.95,245.67v3.35h-27.95v12.2h29.35v3.35h-33.4v-33.35h33.05v3.4h-29v11.05h27.95Z" style="fill: #7c7a79;"/>
    <path d="m641.7,235.61c-.7-.36-1.97-.65-3.8-.89-1.83-.23-4.2-.35-7.1-.35h-1.4c-2.2,0-4.48.1-6.83.3-2.35.2-4.06.54-5.12,1.01-1.07.47-1.75,1.12-2.05,1.92-.3.81-.45,1.79-.45,2.94,0,2.06.56,3.46,1.67,4.21,1.12.74,2.74,1.11,4.88,1.11h11.5c1.37,0,2.58.02,3.65.05,1.07.03,2.67.17,4.82.4,2.15.23,3.88.99,5.2,2.27,1.32,1.28,1.98,3.47,1.98,6.56,0,2.03-.32,3.71-.95,5.06-.63,1.35-1.71,2.36-3.23,3.04-1.52.68-3.35,1.12-5.5,1.32s-4.49.3-7.02.3h-2.65c-2.5,0-4.38-.03-5.62-.08-1.25-.05-3.17-.25-5.75-.6-2.58-.35-4.43-1.25-5.52-2.72-1.1-1.47-1.65-4.04-1.65-7.7h4.05v.74c0,1.79.16,3.12.48,3.98.32.86,1.13,1.5,2.45,1.9,1.32.41,3.08.67,5.27.79,2.2.12,4.37.18,6.5.18,3.47,0,6.39-.15,8.78-.45,2.38-.3,4.01-.87,4.88-1.71.87-.84,1.3-2.22,1.3-4.13,0-2.42-.56-3.96-1.67-4.61s-3-.98-5.67-.98h-7.64l-8.94-.25c-3.13,0-5.54-.6-7.24-1.8-1.7-1.2-2.55-3.23-2.55-6.1,0-2.27.37-4.16,1.1-5.67.73-1.52,1.97-2.6,3.72-3.25,1.75-.65,3.8-1.07,6.17-1.25,2.36-.18,5.01-.28,7.94-.28,2.43,0,4.19.03,5.27.08,1.08.05,2.85.21,5.29.47,2.45.26,4.32,1.14,5.62,2.63s1.95,3.77,1.95,6.82h-4.05c0-1.61-.17-2.81-.52-3.6s-.86-1.34-1.52-1.67Z" style="fill: #7c7a79;"/>
    <path d="m668.4,264.57v-29.95h-16.8v-3.4h37.75v3.4h-16.9v29.95h-4.05Z" style="fill: #7c7a79;"/>
    <path d="m692.8,264.57h-4.74l19.71-33.35h5.35l19.87,33.35h-4.64l-4.41-7.5h-26.78l-4.35,7.5Zm6.3-10.85h22.87l-11.51-19.55-11.35,19.55Z" style="fill: #7c7a79;"/>
    <path d="m748.45,264.57v-29.95h-16.8v-3.4h37.75v3.4h-16.9v29.95h-4.05Z" style="fill: #7c7a79;"/>
    <path d="m805.75,245.67v3.35h-27.95v12.2h29.35v3.35h-33.4v-33.35h33.05v3.4h-29v11.05h27.95Z" style="fill: #7c7a79;"/>
    <path d="m858,235.61c-.7-.36-1.97-.65-3.8-.89-1.83-.23-4.2-.35-7.1-.35h-1.4c-2.2,0-4.48.1-6.83.3-2.35.2-4.06.54-5.12,1.01-1.07.47-1.75,1.12-2.05,1.92-.3.81-.45,1.79-.45,2.94,0,2.06.56,3.46,1.67,4.21,1.12.74,2.74,1.11,4.88,1.11h11.5c1.37,0,2.58.02,3.65.05,1.07.03,2.67.17,4.82.4,2.15.23,3.88.99,5.2,2.27,1.32,1.28,1.98,3.47,1.98,6.56,0,2.03-.32,3.71-.95,5.06-.63,1.35-1.71,2.36-3.23,3.04-1.52.68-3.35,1.12-5.5,1.32s-4.49.3-7.02.3h-2.65c-2.5,0-4.38-.03-5.62-.08-1.25-.05-3.17-.25-5.75-.6-2.58-.35-4.43-1.25-5.52-2.72-1.1-1.47-1.65-4.04-1.65-7.7h4.05v.74c0,1.79.16,3.12.48,3.98.32.86,1.13,1.5,2.45,1.9,1.32.41,3.08.67,5.27.79,2.2.12,4.37.18,6.5.18,3.47,0,6.39-.15,8.78-.45,2.38-.3,4.01-.87,4.88-1.71.87-.84,1.3-2.22,1.3-4.13,0-2.42-.56-3.96-1.67-4.61s-3-.98-5.67-.98h-7.64l-8.94-.25c-3.13,0-5.54-.6-7.24-1.8-1.7-1.2-2.55-3.23-2.55-6.1,0-2.27.37-4.16,1.1-5.67.73-1.52,1.97-2.6,3.72-3.25,1.75-.65,3.8-1.07,6.17-1.25,2.36-.18,5.01-.28,7.94-.28,2.43,0,4.19.03,5.27.08,1.08.05,2.85.21,5.29.47,2.45.26,4.32,1.14,5.62,2.63s1.95,3.77,1.95,6.82h-4.05c0-1.61-.17-2.81-.52-3.6s-.86-1.34-1.52-1.67Z" style="fill: #7c7a79;"/>
    <path d="m876.95,264.57h-4.05v-33.35h4.05v33.35Z" style="fill: #7c7a79;"/>
    <path d="m886.25,264.57v-33.35h6.72l30.78,30.15v-30.15h4.05v33.35h-6.64l-30.86-30.3v30.3h-4.05Z" style="fill: #7c7a79;"/>
    <path d="m964.9,264.67l-8.6.3h-3.7l-7.4-.3c-5.93-.6-8.9-3.79-8.9-9.56l-.2-6.36c0-2.54.02-4.42.08-5.66.05-1.23.29-2.95.73-5.16.43-2.2,1.48-3.87,3.15-5.01,1.67-1.14,3.98-1.7,6.95-1.7,1.33-.16,2.59-.25,3.78-.29,1.18-.04,2.57-.06,4.17-.06h6c1.93,0,3.5.04,4.7.13,1.2.08,2.77.33,4.72.74,1.95.41,3.31,1.49,4.08,3.24.77,1.76,1.15,4.11,1.15,7.04h-4v-.31c0-1.54-.09-2.81-.27-3.8-.18-.99-.62-1.71-1.3-2.16-.68-.45-1.94-.79-3.78-1.03-1.83-.24-4.37-.36-7.6-.36-1.2,0-3.02.06-5.45.17-2.43.12-4.27.18-5.5.18-2.87.23-4.7.75-5.5,1.53-.8.79-1.3,2.15-1.5,4.1-.2,1.94-.32,3.71-.35,5.3-.03,1.59-.05,3.11-.05,4.55,0,4.26.42,7.19,1.27,8.8s3.11,2.41,6.77,2.41h15.25c3.07,0,5.2-.36,6.4-1.09,1.2-.72,1.8-2.47,1.8-5.23v-1.33h4.2c0,4.23-.67,7.11-2,8.62-1.33,1.52-4.37,2.28-9.1,2.28Z" style="fill: #7c7a79;"/>
    <path d="m1016,245.67v3.35h-27.95v12.2h29.35v3.35h-33.4v-33.35h33.05v3.4h-29v11.05h27.95Z" style="fill: #7c7a79;"/>
    <path d="m1039.37,242l13.87-10.77h5.15v33.35h-3.95v-30.17l-12.75,10.22-2.32-2.63Z" style="fill: #7c7a79;"/>
    <path d="m1091.49,261.37l6.7.05h2.2c.5,0,.97,0,1.4-.02.43-.02,1.57-.12,3.4-.33,1.83-.2,3.17-.84,4-1.92.83-1.08,1.25-2.83,1.25-5.23l.05-3.15v-4.75c-.47,1.8-1.22,3.06-2.25,3.77-1.03.72-2.53,1.08-4.5,1.08l-7.5.2h-2.5c-2.6,0-5.24-.12-7.92-.35-2.68-.23-4.67-1.03-5.95-2.38-1.28-1.35-1.92-3.41-1.92-6.18,0-3.2.49-5.69,1.47-7.47s2.52-2.83,4.6-3.12c2.08-.3,4.08-.48,6-.55,1.92-.07,3.74-.1,5.47-.1h1.5l6.4.1c2.83,0,5.27.51,7.32,1.52,2.05,1.02,3.2,2.45,3.45,4.3.25,1.85.41,3.42.48,4.72.07,1.3.1,2.57.1,3.8l-.05,3.2-.1,6.4c0,2.7-.66,4.9-1.97,6.6-1.32,1.7-3.03,2.66-5.12,2.88s-3.92.35-5.47.4c-1.55.05-3.51.07-5.88.07l-10.65-.5c-2.53-.27-4.35-1.23-5.45-2.9-1.1-1.67-1.65-3.83-1.65-6.5h4.05c0,2.9.69,4.68,2.08,5.35,1.38.67,3.71,1,6.97,1Zm4.95-13.8l7.4-.25c2.37,0,4.05-.48,5.05-1.44s1.5-2.62,1.5-4.98-.52-4.03-1.55-4.91c-1.03-.88-2.77-1.32-5.2-1.32l-6.95-.2-2.9-.05c-1.63,0-2.78.03-3.45.08s-1.8.19-3.4.42c-1.6.23-2.8.81-3.6,1.74-.8.93-1.2,2.44-1.2,4.53,0,2.49.42,4.15,1.25,4.98.83.83,2.52,1.25,5.05,1.25l8,.15Z" style="fill: #7c7a79;"/>
    <path d="m1119.09,231.22h37.6v4.9l-24.85,28.45h-5.4l26.23-29.85h-33.58v-3.5Z" style="fill: #7c7a79;"/>
    <path d="m1161.09,231.22h37.6v4.9l-24.85,28.45h-5.4l26.23-29.85h-33.58v-3.5Z" style="fill: #7c7a79;"/>
  </g>
</svg>